<svg id="_099---Hiking" data-name="099---Hiking" xmlns="http://www.w3.org/2000/svg" width="80" height="78.651" viewBox="0 0 80 78.651">
  <path id="Shape" d="M11,18H8.333a1.333,1.333,0,1,0,0,2.666H11A1.333,1.333,0,0,0,11,18Z" transform="translate(2.332 5.995)" fill="#fff"/>
  <path id="Shape-2" data-name="Shape" d="M43,13a8,8,0,1,0,8-8A8,8,0,0,0,43,13Zm8-5.332A5.332,5.332,0,1,1,45.666,13,5.332,5.332,0,0,1,51,7.666Z" transform="translate(14.322 1.665)" fill="#fff"/>
  <path id="Shape-3" data-name="Shape" d="M50.666,2.545V1.333a1.333,1.333,0,1,0-2.666,0V2.545a1.333,1.333,0,1,0,2.666,0Z" transform="translate(15.987)" fill="#fff"/>
  <path id="Shape-4" data-name="Shape" d="M48,20.424v1.212a1.333,1.333,0,1,0,2.666,0V20.424a1.333,1.333,0,1,0-2.666,0Z" transform="translate(15.987 6.359)" fill="#fff"/>
  <path id="Shape-5" data-name="Shape" d="M59.636,10H58.424a1.333,1.333,0,0,0,0,2.666h1.212a1.333,1.333,0,0,0,0-2.666Z" transform="translate(19.015 3.331)" fill="#fff"/>
  <path id="Shape-6" data-name="Shape" d="M40.545,12.666a1.333,1.333,0,1,0,0-2.666H39.333a1.333,1.333,0,1,0,0,2.666Z" transform="translate(12.657 3.331)" fill="#fff"/>
  <path id="Shape-7" data-name="Shape" d="M57.56,3.32a1.333,1.333,0,0,0-1.885,0l-.856.856a1.333,1.333,0,0,0,.942,2.276c.667,0,.893-.341,1.8-1.246a1.333,1.333,0,0,0,0-1.885Z" transform="translate(18.129 0.976)" fill="#fff"/>
  <path id="Shape-8" data-name="Shape" d="M41.32,19.556a1.333,1.333,0,0,0,1.885,0l.856-.856a1.333,1.333,0,0,0-1.885-1.885l-.856.856a1.333,1.333,0,0,0,0,1.885Z" transform="translate(13.632 5.476)" fill="#fff"/>
  <path id="Shape-9" data-name="Shape" d="M56.7,16.815A1.333,1.333,0,0,0,54.815,18.7c.768.768,1.088,1.246,1.8,1.246a1.333,1.333,0,0,0,.942-2.276Z" transform="translate(18.133 5.476)" fill="#fff"/>
  <path id="Shape-10" data-name="Shape" d="M43.2,3.315A1.333,1.333,0,0,0,41.315,5.2c.768.768,1.088,1.246,1.8,1.246a1.333,1.333,0,0,0,.942-2.276Z" transform="translate(13.636 0.98)" fill="#fff"/>
  <path id="Shape-11" data-name="Shape" d="M78.651,73.319c-16.451,0-15.418.105-15.914-.245l-7.948-5.682a3.983,3.983,0,0,0-2.32-.739h-3.4c.328-.918.245-.751.245-7.3l7.253-12.692H68.739l8.756,15.33a1.333,1.333,0,1,0,2.314-1.322L64.966,34.682a2.666,2.666,0,0,0-4.628.008L49.324,53.974V31.845A4.618,4.618,0,0,0,45.991,24H35.94L28.554,16.61a6.715,6.715,0,0,0-4.8-1.946,4.155,4.155,0,0,0-.205-.473A8.652,8.652,0,1,0,8.918,12H4a4,4,0,0,0-4,4v4a2.657,2.657,0,0,0,1.333,2.3V38.659a4,4,0,0,0,4,4V75.985h-4a1.333,1.333,0,0,0,0,2.666H18.77a4,4,0,0,0,3.037-1.4l6.4-7.465a1.365,1.365,0,0,1,1.016-.467c25.242,0,23.5-.119,24.019.245l7.948,5.682a3.983,3.983,0,0,0,2.32.739H78.651a1.333,1.333,0,1,0,0-2.666Zm-16-37.3,4.56,7.977H58.1ZM44.37,66.244a1.278,1.278,0,0,1-.379-.924V33.327a14.251,14.251,0,0,0,2.666-.079V65.32a1.333,1.333,0,0,1-2.288.924Zm3.1-38.926A2.021,2.021,0,0,1,45.8,30.66H43.991v-4c2.156,0,2.757-.141,3.483.659Zm-6.149-.657v4H34.82a4.542,4.542,0,0,1-3.439-1.778L33.9,25.736l.148.148a2.674,2.674,0,0,0,1.876.777Zm-9.32-2.822-2.521,3.147-1.88-1.88a1.333,1.333,0,0,0-2.277.941V38.659H22.662V22.291A2.657,2.657,0,0,0,24,20v-2.65A4.022,4.022,0,0,1,26.661,18.5ZM6.665,29.327A2.666,2.666,0,0,1,4,26.661v-4H20v4a2.666,2.666,0,0,1-2.666,2.666ZM16.89,2.666A5.983,5.983,0,0,1,21.6,12.339C20.567,11.884,20.779,12,11.92,12a5.989,5.989,0,0,1,4.97-9.332ZM2.666,16A1.333,1.333,0,0,1,4,14.664H20A1.333,1.333,0,0,1,21.329,16v4H2.666ZM4,38.659V31.252a5.278,5.278,0,0,0,2.666.741V34.66a1.333,1.333,0,0,0,2.666,0V31.993h5.332V34.66a1.333,1.333,0,1,0,2.666,0V31.993A5.278,5.278,0,0,0,20,31.252c0,7.989.075,7.639-.177,8.066a1.333,1.333,0,0,1-1.156.673H5.332A1.333,1.333,0,0,1,4,38.659Zm16.507,3.533a5.2,5.2,0,0,0,1.136-.866h3.686a6.673,6.673,0,0,1,6.665,6.665v12H25.172L24,50.56a2.666,2.666,0,0,0-2.666-2.57H18.663A2.647,2.647,0,0,0,16,50.568L14.749,69.319H8V42.658C19.709,42.658,19.363,42.791,20.507,42.191ZM8,75.985v-4h8a2.666,2.666,0,0,1,2.666,2.666v1.333Zm13.245-2.172a5.316,5.316,0,0,0-3.837-4.28l1.256-18.876h2.666a1.376,1.376,0,0,0,.011.165c1.589,12.7,1.322,9.221,1.322,15.832A2.666,2.666,0,0,0,25.116,69.3Zm4.085-7.16v-4h8a2.666,2.666,0,0,1,2.666,2.666v1.333Zm9.332-6.476V47.99a9.324,9.324,0,0,0-6.665-8.91V29.266l2.11,2.11a6.712,6.712,0,0,0,4.715,1.95h6.505c0,35.006-.1,32.35.241,33.327H38.659V65.32A5.332,5.332,0,0,0,34.66,60.177Z" transform="translate(0 0)" fill="#fff"/>
</svg>
